<mxfile host="app.diagrams.net" modified="2021-09-25T05:54:01.491Z" agent="5.0 (Windows NT 10.0; Win64; x64) AppleWebKit/537.36 (KHTML, like Gecko) Chrome/93.0.4577.82 Safari/537.36" etag="NQ3B4pKib7TuP4xH0xoW" version="15.3.2" type="github">
  <diagram id="R2lEEEUBdFMjLlhIrx00" name="Page-1">
    <mxGraphModel dx="868" dy="490" grid="1" gridSize="10" guides="1" tooltips="1" connect="1" arrows="1" fold="1" page="1" pageScale="1" pageWidth="850" pageHeight="1100" math="0" shadow="0" extFonts="Permanent Marker^https://fonts.googleapis.com/css?family=Permanent+Marker">
      <root>
        <mxCell id="0" />
        <mxCell id="1" parent="0" />
        <mxCell id="V3NAtrR6u3neziKLqOjZ-5" value="CLEANING SCHEDULE" style="swimlane;fontStyle=0;childLayout=stackLayout;horizontal=1;startSize=26;horizontalStack=0;resizeParent=1;resizeParentMax=0;resizeLast=0;collapsible=1;marginBottom=0;align=center;fontSize=14;rounded=1;" vertex="1" parent="1">
          <mxGeometry x="320" y="80" width="160" height="116" as="geometry" />
        </mxCell>
        <mxCell id="V3NAtrR6u3neziKLqOjZ-6" value="#ScheduleID" style="text;strokeColor=none;fillColor=none;spacingLeft=4;spacingRight=4;overflow=hidden;rotatable=0;points=[[0,0.5],[1,0.5]];portConstraint=eastwest;fontSize=12;" vertex="1" parent="V3NAtrR6u3neziKLqOjZ-5">
          <mxGeometry y="26" width="160" height="30" as="geometry" />
        </mxCell>
        <mxCell id="V3NAtrR6u3neziKLqOjZ-7" value="*Time" style="text;strokeColor=none;fillColor=none;spacingLeft=4;spacingRight=4;overflow=hidden;rotatable=0;points=[[0,0.5],[1,0.5]];portConstraint=eastwest;fontSize=12;" vertex="1" parent="V3NAtrR6u3neziKLqOjZ-5">
          <mxGeometry y="56" width="160" height="30" as="geometry" />
        </mxCell>
        <mxCell id="V3NAtrR6u3neziKLqOjZ-8" value="*Day" style="text;strokeColor=none;fillColor=none;spacingLeft=4;spacingRight=4;overflow=hidden;rotatable=0;points=[[0,0.5],[1,0.5]];portConstraint=eastwest;fontSize=12;" vertex="1" parent="V3NAtrR6u3neziKLqOjZ-5">
          <mxGeometry y="86" width="160" height="30" as="geometry" />
        </mxCell>
        <mxCell id="V3NAtrR6u3neziKLqOjZ-9" value="CLEANING COMPANY" style="swimlane;fontStyle=0;childLayout=stackLayout;horizontal=1;startSize=26;horizontalStack=0;resizeParent=1;resizeParentMax=0;resizeLast=0;collapsible=1;marginBottom=0;align=center;fontSize=14;rounded=1;" vertex="1" parent="1">
          <mxGeometry x="150" y="250" width="160" height="116" as="geometry" />
        </mxCell>
        <mxCell id="V3NAtrR6u3neziKLqOjZ-10" value="#CompanyID" style="text;strokeColor=none;fillColor=none;spacingLeft=4;spacingRight=4;overflow=hidden;rotatable=0;points=[[0,0.5],[1,0.5]];portConstraint=eastwest;fontSize=12;" vertex="1" parent="V3NAtrR6u3neziKLqOjZ-9">
          <mxGeometry y="26" width="160" height="30" as="geometry" />
        </mxCell>
        <mxCell id="V3NAtrR6u3neziKLqOjZ-11" value="*CompanyName" style="text;strokeColor=none;fillColor=none;spacingLeft=4;spacingRight=4;overflow=hidden;rotatable=0;points=[[0,0.5],[1,0.5]];portConstraint=eastwest;fontSize=12;" vertex="1" parent="V3NAtrR6u3neziKLqOjZ-9">
          <mxGeometry y="56" width="160" height="30" as="geometry" />
        </mxCell>
        <mxCell id="V3NAtrR6u3neziKLqOjZ-12" value="*CompanyAddress" style="text;strokeColor=none;fillColor=none;spacingLeft=4;spacingRight=4;overflow=hidden;rotatable=0;points=[[0,0.5],[1,0.5]];portConstraint=eastwest;fontSize=12;" vertex="1" parent="V3NAtrR6u3neziKLqOjZ-9">
          <mxGeometry y="86" width="160" height="30" as="geometry" />
        </mxCell>
        <mxCell id="V3NAtrR6u3neziKLqOjZ-13" value="CLEANING SERVICE" style="swimlane;fontStyle=0;childLayout=stackLayout;horizontal=1;startSize=26;horizontalStack=0;resizeParent=1;resizeParentMax=0;resizeLast=0;collapsible=1;marginBottom=0;align=center;fontSize=14;rounded=1;" vertex="1" parent="1">
          <mxGeometry x="490" y="250" width="160" height="116" as="geometry" />
        </mxCell>
        <mxCell id="V3NAtrR6u3neziKLqOjZ-14" value="#ServiceID" style="text;strokeColor=none;fillColor=none;spacingLeft=4;spacingRight=4;overflow=hidden;rotatable=0;points=[[0,0.5],[1,0.5]];portConstraint=eastwest;fontSize=12;" vertex="1" parent="V3NAtrR6u3neziKLqOjZ-13">
          <mxGeometry y="26" width="160" height="30" as="geometry" />
        </mxCell>
        <mxCell id="V3NAtrR6u3neziKLqOjZ-15" value="*ServiceName" style="text;strokeColor=none;fillColor=none;spacingLeft=4;spacingRight=4;overflow=hidden;rotatable=0;points=[[0,0.5],[1,0.5]];portConstraint=eastwest;fontSize=12;" vertex="1" parent="V3NAtrR6u3neziKLqOjZ-13">
          <mxGeometry y="56" width="160" height="30" as="geometry" />
        </mxCell>
        <mxCell id="V3NAtrR6u3neziKLqOjZ-16" value="Â " style="text;strokeColor=none;fillColor=none;spacingLeft=4;spacingRight=4;overflow=hidden;rotatable=0;points=[[0,0.5],[1,0.5]];portConstraint=eastwest;fontSize=12;" vertex="1" parent="V3NAtrR6u3neziKLqOjZ-13">
          <mxGeometry y="86" width="160" height="30" as="geometry" />
        </mxCell>
        <mxCell id="V3NAtrR6u3neziKLqOjZ-17" value="set for" style="edgeStyle=orthogonalEdgeStyle;rounded=0;orthogonalLoop=1;jettySize=auto;html=1;exitX=1;exitY=0.5;exitDx=0;exitDy=0;dashed=1;startArrow=none;startFill=0;endArrow=none;endFill=0;" edge="1" parent="1">
          <mxGeometry x="-0.2" y="-10" relative="1" as="geometry">
            <mxPoint x="360" y="316" as="targetPoint" />
            <mxPoint as="offset" />
            <mxPoint x="310" y="316" as="sourcePoint" />
          </mxGeometry>
        </mxCell>
        <mxCell id="V3NAtrR6u3neziKLqOjZ-18" value="follow on" style="edgeStyle=orthogonalEdgeStyle;rounded=0;orthogonalLoop=1;jettySize=auto;html=1;exitX=0;exitY=0.5;exitDx=0;exitDy=0;dashed=1;startArrow=none;startFill=0;endArrow=none;endFill=0;" edge="1" parent="1">
          <mxGeometry x="0.2" y="10" relative="1" as="geometry">
            <mxPoint x="439" y="316" as="targetPoint" />
            <mxPoint as="offset" />
            <mxPoint x="489" y="316" as="sourcePoint" />
          </mxGeometry>
        </mxCell>
        <mxCell id="V3NAtrR6u3neziKLqOjZ-19" value="for" style="edgeStyle=orthogonalEdgeStyle;rounded=0;orthogonalLoop=1;jettySize=auto;html=1;exitX=0.75;exitY=1;exitDx=0;exitDy=0;startArrow=ERoneToMany;startFill=0;endArrow=none;endFill=0;" edge="1" parent="1">
          <mxGeometry x="-0.8333" y="20" relative="1" as="geometry">
            <mxPoint x="440" y="316" as="targetPoint" />
            <mxPoint as="offset" />
            <mxPoint x="440" y="196" as="sourcePoint" />
          </mxGeometry>
        </mxCell>
        <mxCell id="V3NAtrR6u3neziKLqOjZ-20" value="for" style="edgeStyle=orthogonalEdgeStyle;rounded=0;orthogonalLoop=1;jettySize=auto;html=1;exitX=0.25;exitY=1;exitDx=0;exitDy=0;startArrow=ERoneToMany;startFill=0;endArrow=none;endFill=0;" edge="1" parent="1">
          <mxGeometry x="-0.8333" y="-20" relative="1" as="geometry">
            <mxPoint x="360" y="316" as="targetPoint" />
            <mxPoint as="offset" />
            <mxPoint x="360" y="196" as="sourcePoint" />
          </mxGeometry>
        </mxCell>
      </root>
    </mxGraphModel>
  </diagram>
</mxfile>
